<?xml version="1.0" standalone="no"?>
<svg xmlns:xlink="http://www.w3.org/1999/xlink" id="wave" style="transform:rotate(180deg); transition: 0.3s" viewBox="0 0 1440 490" version="1.1" xmlns="http://www.w3.org/2000/svg"><defs><linearGradient id="sw-gradient-0" x1="0" x2="0" y1="1" y2="0"><stop stop-color="rgba(0, 153, 255, 0.2784313725490196)" offset="0%"/><stop stop-color="rgba(0, 153, 255, 0.2784313725490196)" offset="100%"/></linearGradient></defs><path style="transform:translate(0, 0px); opacity:1" fill="url(#sw-gradient-0)" d="M0,196L120,228.7C240,261,480,327,720,326.7C960,327,1200,261,1440,220.5C1680,180,1920,163,2160,204.2C2400,245,2640,343,2880,334.8C3120,327,3360,212,3600,138.8C3840,65,4080,33,4320,40.8C4560,49,4800,98,5040,163.3C5280,229,5520,310,5760,302.2C6000,294,6240,196,6480,196C6720,196,6960,294,7200,343C7440,392,7680,392,7920,359.3C8160,327,8400,261,8640,228.7C8880,196,9120,196,9360,236.8C9600,278,9840,359,10080,383.8C10320,408,10560,376,10800,310.3C11040,245,11280,147,11520,106.2C11760,65,12000,82,12240,106.2C12480,131,12720,163,12960,187.8C13200,212,13440,229,13680,236.8C13920,245,14160,245,14400,212.3C14640,180,14880,114,15120,147C15360,180,15600,310,15840,302.2C16080,294,16320,147,16560,89.8C16800,33,17040,65,17160,81.7L17280,98L17280,490L17160,490C17040,490,16800,490,16560,490C16320,490,16080,490,15840,490C15600,490,15360,490,15120,490C14880,490,14640,490,14400,490C14160,490,13920,490,13680,490C13440,490,13200,490,12960,490C12720,490,12480,490,12240,490C12000,490,11760,490,11520,490C11280,490,11040,490,10800,490C10560,490,10320,490,10080,490C9840,490,9600,490,9360,490C9120,490,8880,490,8640,490C8400,490,8160,490,7920,490C7680,490,7440,490,7200,490C6960,490,6720,490,6480,490C6240,490,6000,490,5760,490C5520,490,5280,490,5040,490C4800,490,4560,490,4320,490C4080,490,3840,490,3600,490C3360,490,3120,490,2880,490C2640,490,2400,490,2160,490C1920,490,1680,490,1440,490C1200,490,960,490,720,490C480,490,240,490,120,490L0,490Z"/></svg>