<?xml version="1.0" standalone="no"?>
<svg xmlns:xlink="http://www.w3.org/1999/xlink" id="wave" style="transform:rotate(0deg); transition: 0.3s" viewBox="0 0 1440 310" version="1.1" xmlns="http://www.w3.org/2000/svg"><defs><linearGradient id="sw-gradient-0" x1="0" x2="0" y1="1" y2="0"><stop stop-color="rgba(0, 153, 255, 1)" offset="0%"/><stop stop-color="rgba(0, 153, 255, 1)" offset="100%"/></linearGradient></defs><path style="transform:translate(0, 0px); opacity:1" fill="url(#sw-gradient-0)" d="M0,155L80,175.7C160,196,320,238,480,227.3C640,217,800,155,960,134.3C1120,114,1280,134,1440,134.3C1600,134,1760,114,1920,87.8C2080,62,2240,31,2400,46.5C2560,62,2720,124,2880,129.2C3040,134,3200,83,3360,87.8C3520,93,3680,155,3840,191.2C4000,227,4160,238,4320,248C4480,258,4640,269,4800,237.7C4960,207,5120,134,5280,134.3C5440,134,5600,207,5760,237.7C5920,269,6080,258,6240,217C6400,176,6560,103,6720,87.8C6880,72,7040,114,7200,155C7360,196,7520,238,7680,211.8C7840,186,8000,93,8160,72.3C8320,52,8480,103,8640,129.2C8800,155,8960,155,9120,139.5C9280,124,9440,93,9600,108.5C9760,124,9920,186,10080,191.2C10240,196,10400,145,10560,103.3C10720,62,10880,31,11040,41.3C11200,52,11360,103,11440,129.2L11520,155L11520,310L11440,310C11360,310,11200,310,11040,310C10880,310,10720,310,10560,310C10400,310,10240,310,10080,310C9920,310,9760,310,9600,310C9440,310,9280,310,9120,310C8960,310,8800,310,8640,310C8480,310,8320,310,8160,310C8000,310,7840,310,7680,310C7520,310,7360,310,7200,310C7040,310,6880,310,6720,310C6560,310,6400,310,6240,310C6080,310,5920,310,5760,310C5600,310,5440,310,5280,310C5120,310,4960,310,4800,310C4640,310,4480,310,4320,310C4160,310,4000,310,3840,310C3680,310,3520,310,3360,310C3200,310,3040,310,2880,310C2720,310,2560,310,2400,310C2240,310,2080,310,1920,310C1760,310,1600,310,1440,310C1280,310,1120,310,960,310C800,310,640,310,480,310C320,310,160,310,80,310L0,310Z"/></svg>