<?xml version="1.0" standalone="no"?>
<svg xmlns:xlink="http://www.w3.org/1999/xlink" id="wave" style="transform:rotate(0deg); transition: 0.3s" viewBox="0 0 1440 490" version="1.1" xmlns="http://www.w3.org/2000/svg"><defs><linearGradient id="sw-gradient-0" x1="0" x2="0" y1="1" y2="0"><stop stop-color="rgba(0, 153, 255, 0.2784313725490196)" offset="0%"/><stop stop-color="rgba(0, 153, 255, 0.2784313725490196)" offset="100%"/></linearGradient></defs><path style="transform:translate(0, 0px); opacity:1" fill="url(#sw-gradient-0)" d="M0,245L21.8,236.8C43.6,229,87,212,131,171.5C174.5,131,218,65,262,73.5C305.5,82,349,163,393,228.7C436.4,294,480,343,524,326.7C567.3,310,611,229,655,236.8C698.2,245,742,343,785,326.7C829.1,310,873,180,916,163.3C960,147,1004,245,1047,302.2C1090.9,359,1135,376,1178,375.7C1221.8,376,1265,359,1309,343C1352.7,327,1396,310,1440,294C1483.6,278,1527,261,1571,212.3C1614.5,163,1658,82,1702,106.2C1745.5,131,1789,261,1833,302.2C1876.4,343,1920,294,1964,302.2C2007.3,310,2051,376,2095,343C2138.2,310,2182,180,2225,171.5C2269.1,163,2313,278,2356,343C2400,408,2444,425,2487,375.7C2530.9,327,2575,212,2618,155.2C2661.8,98,2705,98,2749,114.3C2792.7,131,2836,163,2880,147C2923.6,131,2967,65,3011,57.2C3054.5,49,3098,98,3120,122.5L3141.8,147L3141.8,490L3120,490C3098.2,490,3055,490,3011,490C2967.3,490,2924,490,2880,490C2836.4,490,2793,490,2749,490C2705.5,490,2662,490,2618,490C2574.5,490,2531,490,2487,490C2443.6,490,2400,490,2356,490C2312.7,490,2269,490,2225,490C2181.8,490,2138,490,2095,490C2050.9,490,2007,490,1964,490C1920,490,1876,490,1833,490C1789.1,490,1745,490,1702,490C1658.2,490,1615,490,1571,490C1527.3,490,1484,490,1440,490C1396.4,490,1353,490,1309,490C1265.5,490,1222,490,1178,490C1134.5,490,1091,490,1047,490C1003.6,490,960,490,916,490C872.7,490,829,490,785,490C741.8,490,698,490,655,490C610.9,490,567,490,524,490C480,490,436,490,393,490C349.1,490,305,490,262,490C218.2,490,175,490,131,490C87.3,490,44,490,22,490L0,490Z"/></svg>