<?xml version="1.0" standalone="no"?>
<svg xmlns:xlink="http://www.w3.org/1999/xlink" id="wave" style="transform:rotate(0deg); transition: 0.3s" viewBox="0 0 1440 490" version="1.1" xmlns="http://www.w3.org/2000/svg"><defs><linearGradient id="sw-gradient-0" x1="0" x2="0" y1="1" y2="0"><stop stop-color="rgba(0, 153, 255, 1)" offset="0%"/><stop stop-color="rgba(0, 153, 255, 1)" offset="100%"/></linearGradient></defs><path style="transform:translate(0, 0px); opacity:1" fill="url(#sw-gradient-0)" d="M0,294L21.8,318.5C43.6,343,87,392,131,383.8C174.5,376,218,310,262,302.2C305.5,294,349,343,393,367.5C436.4,392,480,392,524,392C567.3,392,611,392,655,359.3C698.2,327,742,261,785,253.2C829.1,245,873,294,916,277.7C960,261,1004,180,1047,179.7C1090.9,180,1135,261,1178,310.3C1221.8,359,1265,376,1309,383.8C1352.7,392,1396,392,1440,383.8C1483.6,376,1527,359,1571,334.8C1614.5,310,1658,278,1702,294C1745.5,310,1789,376,1833,367.5C1876.4,359,1920,278,1964,204.2C2007.3,131,2051,65,2095,65.3C2138.2,65,2182,131,2225,130.7C2269.1,131,2313,65,2356,32.7C2400,0,2444,0,2487,32.7C2530.9,65,2575,131,2618,204.2C2661.8,278,2705,359,2749,375.7C2792.7,392,2836,343,2880,326.7C2923.6,310,2967,327,3011,334.8C3054.5,343,3098,343,3120,343L3141.8,343L3141.8,490L3120,490C3098.2,490,3055,490,3011,490C2967.3,490,2924,490,2880,490C2836.4,490,2793,490,2749,490C2705.5,490,2662,490,2618,490C2574.5,490,2531,490,2487,490C2443.6,490,2400,490,2356,490C2312.7,490,2269,490,2225,490C2181.8,490,2138,490,2095,490C2050.9,490,2007,490,1964,490C1920,490,1876,490,1833,490C1789.1,490,1745,490,1702,490C1658.2,490,1615,490,1571,490C1527.3,490,1484,490,1440,490C1396.4,490,1353,490,1309,490C1265.5,490,1222,490,1178,490C1134.5,490,1091,490,1047,490C1003.6,490,960,490,916,490C872.7,490,829,490,785,490C741.8,490,698,490,655,490C610.9,490,567,490,524,490C480,490,436,490,393,490C349.1,490,305,490,262,490C218.2,490,175,490,131,490C87.3,490,44,490,22,490L0,490Z"/></svg>