<?xml version="1.0" standalone="no"?>
<svg xmlns:xlink="http://www.w3.org/1999/xlink" id="wave" style="transform:rotate(0deg); transition: 0.3s" viewBox="0 0 1440 490" version="1.1" xmlns="http://www.w3.org/2000/svg"><defs><linearGradient id="sw-gradient-0" x1="0" x2="0" y1="1" y2="0"><stop stop-color="rgba(0, 153, 255, 1)" offset="0%"/><stop stop-color="rgba(0, 153, 255, 1)" offset="100%"/></linearGradient></defs><path style="transform:translate(0, 0px); opacity:1" fill="url(#sw-gradient-0)" d="M0,245L26.7,277.7C53.3,310,107,376,160,359.3C213.3,343,267,245,320,212.3C373.3,180,427,212,480,212.3C533.3,212,587,180,640,138.8C693.3,98,747,49,800,73.5C853.3,98,907,196,960,204.2C1013.3,212,1067,131,1120,138.8C1173.3,147,1227,245,1280,302.2C1333.3,359,1387,376,1440,392C1493.3,408,1547,425,1600,375.7C1653.3,327,1707,212,1760,212.3C1813.3,212,1867,327,1920,375.7C1973.3,425,2027,408,2080,343C2133.3,278,2187,163,2240,138.8C2293.3,114,2347,180,2400,245C2453.3,310,2507,376,2560,334.8C2613.3,294,2667,147,2720,114.3C2773.3,82,2827,163,2880,204.2C2933.3,245,2987,245,3040,220.5C3093.3,196,3147,147,3200,171.5C3253.3,196,3307,294,3360,302.2C3413.3,310,3467,229,3520,163.3C3573.3,98,3627,49,3680,65.3C3733.3,82,3787,163,3813,204.2L3840,245L3840,490L3813.3,490C3786.7,490,3733,490,3680,490C3626.7,490,3573,490,3520,490C3466.7,490,3413,490,3360,490C3306.7,490,3253,490,3200,490C3146.7,490,3093,490,3040,490C2986.7,490,2933,490,2880,490C2826.7,490,2773,490,2720,490C2666.7,490,2613,490,2560,490C2506.7,490,2453,490,2400,490C2346.7,490,2293,490,2240,490C2186.7,490,2133,490,2080,490C2026.7,490,1973,490,1920,490C1866.7,490,1813,490,1760,490C1706.7,490,1653,490,1600,490C1546.7,490,1493,490,1440,490C1386.7,490,1333,490,1280,490C1226.7,490,1173,490,1120,490C1066.7,490,1013,490,960,490C906.7,490,853,490,800,490C746.7,490,693,490,640,490C586.7,490,533,490,480,490C426.7,490,373,490,320,490C266.7,490,213,490,160,490C106.7,490,53,490,27,490L0,490Z"/></svg>